<svg id="Лапки_-_фон_заявки" data-name="Лапки - фон заявки" xmlns="http://www.w3.org/2000/svg" width="299" height="133.031" viewBox="0 0 299 133.031">
  <defs>
    <style>
      .cls-1 {
        fill: #f2b354;
        stroke: #7f5d29;
        stroke-width: 1px;
        fill-rule: evenodd;
      }
    </style>
  </defs>
  <path id="Фигура_13_копия_5" data-name="Фигура 13 копия 5" class="cls-1" d="M1556.88,224.081a5.215,5.215,0,0,1,4.04-4.3,5.391,5.391,0,0,0,3.13-2.163,5.542,5.542,0,0,1,6.8-1.748,5.254,5.254,0,0,1,2.94,6.165,6.115,6.115,0,0,1-.8,1.778,5.837,5.837,0,0,0-.8,5.225,5.394,5.394,0,0,1-3.43,6.721,5.474,5.474,0,0,1-7.03-3.445,5.354,5.354,0,0,0-2.26-2.982,5.31,5.31,0,0,1-2.49-3.485A14.747,14.747,0,0,1,1556.88,224.081Zm-6.38-9.858a6.667,6.667,0,0,1,4.47,2.776,3.109,3.109,0,0,1,.27,3.551,3.5,3.5,0,0,1-2.58,1.608,6.7,6.7,0,0,1-6.99-3.614,2.978,2.978,0,0,1,1.73-4.048A5.779,5.779,0,0,1,1550.5,214.223Zm-2.88,17.561a5.708,5.708,0,0,1-2.84-1.268,2.9,2.9,0,0,1-.37-4.18,6.035,6.035,0,0,1,4.51-2.13,5.865,5.865,0,0,1,4.07,1.086,2.939,2.939,0,0,1,.48,4.524,6.081,6.081,0,0,1-4.29,1.972C1548.66,231.831,1548.14,231.787,1547.62,231.784Zm6.3,8.126a3.757,3.757,0,0,1-2.64-1.457,2.9,2.9,0,0,1,.29-3.6,6.337,6.337,0,0,1,4.88-2.24,4.868,4.868,0,0,1,2.36.489,2.8,2.8,0,0,1,1.26,4.094,5.651,5.651,0,0,1-3.98,2.618,17.942,17.942,0,0,1-2.16.183A0.274,0.274,0,0,0,1553.92,239.91Zm4.97-31.716a6.407,6.407,0,0,1,4.78,3.6,3.131,3.131,0,0,1,.12,2.526,3.07,3.07,0,0,1-2.98,1.84,6.355,6.355,0,0,1-5.72-3.752,3.053,3.053,0,0,1-.02-2.527,3.006,3.006,0,0,1,2.76-1.714C1558.18,208.143,1558.53,208.183,1558.89,208.194Z" transform="translate(-1334.5 -107.469)"/>
  <path id="Фигура_13_копия_10" data-name="Фигура 13 копия 10" class="cls-1" d="M1621.02,207.215a4,4,0,0,1,4.5.1,4.075,4.075,0,0,0,2.81.666,4.23,4.23,0,0,1,4.46,2.956,3.972,3.972,0,0,1-1.99,4.8,4.488,4.488,0,0,1-1.41.453,4.428,4.428,0,0,0-3.36,2.208,4.115,4.115,0,0,1-5.55,1.481,4.158,4.158,0,0,1-1.64-5.728,4.07,4.07,0,0,0,.53-2.793,4.032,4.032,0,0,1,.7-3.18A11.6,11.6,0,0,1,1621.02,207.215Zm2.32-8.622a5.062,5.062,0,0,1,.71,3.942,2.364,2.364,0,0,1-1.87,1.96,2.656,2.656,0,0,1-2.22-.641,5.093,5.093,0,0,1-1.53-5.793,2.275,2.275,0,0,1,3.18-1.081A4.347,4.347,0,0,1,1623.34,198.593Zm-11.4,7.311a4.275,4.275,0,0,1-.73-2.252,2.192,2.192,0,0,1,2.17-2.337,4.6,4.6,0,0,1,3.51,1.466,4.462,4.462,0,0,1,1.46,2.853,2.235,2.235,0,0,1-2.31,2.575,4.655,4.655,0,0,1-3.31-1.424C1612.44,206.516,1612.2,206.2,1611.94,205.9Zm-1.38,7.7a2.854,2.854,0,0,1-.53-2.234,2.2,2.2,0,0,1,2.19-1.666,4.811,4.811,0,0,1,3.75,1.616,3.661,3.661,0,0,1,.93,1.581,2.124,2.124,0,0,1-1.67,2.8,4.34,4.34,0,0,1-3.52-.919,15.249,15.249,0,0,1-1.2-1.125C1610.53,213.634,1610.54,213.618,1610.56,213.6Zm20.48-13.329a4.865,4.865,0,0,1,.39,4.529,2.265,2.265,0,0,1-3.92.609,4.836,4.836,0,0,1-.8-5.142,2.358,2.358,0,0,1,1.42-1.3,2.3,2.3,0,0,1,2.38.69C1630.7,199.842,1630.86,200.062,1631.04,200.272Z" transform="translate(-1334.5 -107.469)"/>
  <path id="Фигура_1" data-name="Фигура 1" class="cls-1" d="M1423.72,152.854c-15.82-.017-45.85-3.1-71.14-23.324,0,0-1.68-.939-1.62-0.079-0.51,2.046,7.75,12.4,16.86,18.741s11.42,8.309,10.81,10.3-15.54-1.843-30.62-18.6-13.55-29.5-12.21-30.727c3.9-3.555,11.5,1.835,21.19,4.876,10.37,3.256,21.27,5.753,24.36,6.32,5.97,1.095,1.87,4.2-4.24,3.863s-18.69-2.16-19.37-.953,25.65,18.292,48.21,22.725,27.7,4.387,28.03,5.449S1430.56,152.862,1423.72,152.854Z" transform="translate(-1334.5 -107.469)"/>
  <path id="Фигура_13_копия_7" data-name="Фигура 13 копия 7" class="cls-1" d="M1553.63,166.943a6.141,6.141,0,0,1,6.87-1.265,6.205,6.205,0,0,0,4.47.141,6.348,6.348,0,0,1,7.59,3.165,6.427,6.427,0,0,1-1.71,8.045,7.272,7.272,0,0,1-2.02,1.146,7.155,7.155,0,0,0-4.51,4.472,6.426,6.426,0,1,1-12.11-4.3,6.532,6.532,0,0,0,.06-4.487,6.421,6.421,0,0,1,.19-5.136A18.811,18.811,0,0,1,1553.63,166.943Zm1.17-14.061a7.967,7.967,0,0,1,2.17,5.87,3.876,3.876,0,0,1-2.31,3.619,4.035,4.035,0,0,1-3.57-.289,7.921,7.921,0,0,1-3.9-8.476,3.582,3.582,0,0,1,4.53-2.671A6.617,6.617,0,0,1,1554.8,152.882Zm-15.34,14.894a6.7,6.7,0,0,1-1.73-3.25,3.56,3.56,0,0,1,2.67-4.3,6.889,6.889,0,0,1,5.73,1.16,6.794,6.794,0,0,1,3.01,3.952,3.6,3.6,0,0,1-2.81,4.709,6.952,6.952,0,0,1-5.42-1.16C1540.4,168.564,1539.94,168.149,1539.46,167.776Zm0.01,12.336a4.446,4.446,0,0,1-1.41-3.289,3.537,3.537,0,0,1,2.87-3.264,7.228,7.228,0,0,1,6.15,1.317,5.53,5.53,0,0,1,1.84,2.151,3.436,3.436,0,0,1-1.77,4.853,6.536,6.536,0,0,1-5.6-.314,21.115,21.115,0,0,1-2.14-1.361C1539.43,180.174,1539.45,180.142,1539.47,180.112Zm27.5-27.059a7.674,7.674,0,0,1,1.84,6.877,3.851,3.851,0,0,1-1.7,2.525,3.54,3.54,0,0,1-4.1-.347,7.542,7.542,0,0,1-2.62-7.7,3.77,3.77,0,0,1,1.8-2.456,3.476,3.476,0,0,1,3.81.317C1566.34,152.5,1566.64,152.785,1566.97,153.053Z" transform="translate(-1334.5 -107.469)"/>
  <path id="Фигура_13_копия_8" data-name="Фигура 13 копия 8" class="cls-1" d="M1484.37,198.181a6.574,6.574,0,0,1,5.53-4.971,6.765,6.765,0,0,0,4.15-2.38,6.94,6.94,0,0,1,8.71-1.451,6.66,6.66,0,0,1,3.01,8.091,7.68,7.68,0,0,1-1.19,2.152,7.391,7.391,0,0,0-1.56,6.494A6.822,6.822,0,0,1,1498,214.2a6.9,6.9,0,0,1-8.44-5.116,6.739,6.739,0,0,0-2.51-4.006,6.714,6.714,0,0,1-2.74-4.665A20.907,20.907,0,0,1,1484.37,198.181Zm-6.93-13.123a8.423,8.423,0,0,1,5.31,3.992,3.983,3.983,0,0,1-.05,4.5,4.36,4.36,0,0,1-3.4,1.74c-3.52.307-7.4-2.158-8.38-5.325a3.775,3.775,0,0,1,2.61-4.909A7.233,7.233,0,0,1,1477.44,185.058Zm-5.49,21.8a7.214,7.214,0,0,1-3.43-1.911,3.682,3.682,0,0,1-.01-5.306,7.539,7.539,0,0,1,5.88-2.186,7.362,7.362,0,0,1,4.98,1.819,3.726,3.726,0,0,1,.11,5.752,7.6,7.6,0,0,1-5.59,2.009C1473.24,207.036,1472.59,206.924,1471.95,206.862Zm7.01,10.934a4.732,4.732,0,0,1-3.15-2.127,3.67,3.67,0,0,1,.75-4.5,7.927,7.927,0,0,1,6.36-2.282,6.018,6.018,0,0,1,2.89.877,3.538,3.538,0,0,1,1.14,5.3,7.076,7.076,0,0,1-5.27,2.857,22.45,22.45,0,0,1-2.72-.007V217.8Zm9.65-39.4a8.092,8.092,0,0,1,5.59,5.062,3.955,3.955,0,0,1-.12,3.2,3.832,3.832,0,0,1-3.92,1.989,8,8,0,0,1-6.76-5.358,3.859,3.859,0,0,1,.24-3.185,3.777,3.777,0,0,1,3.65-1.855C1487.72,178.248,1488.16,178.337,1488.61,178.391Z" transform="translate(-1334.5 -107.469)"/>
  <path id="Фигура_13_копия_9" data-name="Фигура 13 копия 9" class="cls-1" d="M1474.94,136.36a7.516,7.516,0,0,1,7.07-4.766,7.693,7.693,0,0,0,5.09-2.036,7.9,7.9,0,0,1,10.1-.229,7.72,7.72,0,0,1,2.09,9.725,8.815,8.815,0,0,1-1.7,2.259,8.6,8.6,0,0,0-2.83,7.153,7.882,7.882,0,0,1-15.72,1.185,7.773,7.773,0,0,0-2.19-4.98,7.748,7.748,0,0,1-2.34-5.771A20.23,20.23,0,0,1,1474.94,136.36Zm-5.71-16.107a9.668,9.668,0,0,1,5.36,5.423,4.608,4.608,0,0,1-.79,5.131,4.975,4.975,0,0,1-4.14,1.427c-4.04-.226-8.02-3.672-8.61-7.446a4.337,4.337,0,0,1,3.75-5.173A8.247,8.247,0,0,1,1469.23,120.253Zm-9.78,23.977a8.255,8.255,0,0,1-3.57-2.741,4.261,4.261,0,0,1,.85-6.056,8.6,8.6,0,0,1,7.02-1.531,8.444,8.444,0,0,1,5.35,2.89,4.321,4.321,0,0,1-.81,6.582,8.67,8.67,0,0,1-6.66,1.377C1460.9,144.641,1460.18,144.406,1459.45,144.23Zm6.17,13.622a5.4,5.4,0,0,1-3.22-2.942,4.227,4.227,0,0,1,1.58-5.011,9.005,9.005,0,0,1,7.57-1.564,6.857,6.857,0,0,1,3.13,1.474,4.11,4.11,0,0,1,.44,6.231,8.081,8.081,0,0,1-6.44,2.4,25.537,25.537,0,0,1-3.08-.454C1465.61,157.94,1465.61,157.9,1465.62,157.852Zm17.34-43.376a9.311,9.311,0,0,1,5.51,6.691,4.6,4.6,0,0,1-.66,3.626,4.374,4.374,0,0,1-4.77,1.627,9.182,9.182,0,0,1-6.78-7.22,4.559,4.559,0,0,1,.79-3.6,4.31,4.31,0,0,1,4.44-1.517C1481.98,114.168,1482.46,114.341,1482.96,114.476Z" transform="translate(-1334.5 -107.469)"/>
</svg>
