<svg xmlns="http://www.w3.org/2000/svg" width="22" height="21.97" viewBox="0 0 22 21.97">
  <defs>
    <style>
      .cls-1 {
        fill: #29222e;
        fill-rule: evenodd;
      }
    </style>
  </defs>
  <path id="Фигура_13_копия_11" data-name="Фигура 13 копия 11" class="cls-1" d="M1403.94,2506.69a3.677,3.677,0,0,1,2.46,3.37,3.838,3.838,0,0,0,1.09,2.45,3.834,3.834,0,0,1-4.44,6.09,4.78,4.78,0,0,1-1.14-.8,4.237,4.237,0,0,0-3.55-1.27,3.845,3.845,0,1,1-.87-7.64,3.85,3.85,0,0,0,2.41-1.14,3.8,3.8,0,0,1,2.79-1.23A8.933,8.933,0,0,1,1403.94,2506.69Zm7.8-3.03a4.709,4.709,0,0,1-2.57,2.69,2.263,2.263,0,0,1-2.53-.3,2.427,2.427,0,0,1-.77-2,4.7,4.7,0,0,1,3.5-4.31,2.132,2.132,0,0,1,2.6,1.75A3.931,3.931,0,0,1,1411.74,2503.66Zm-11.93-4.4a3.928,3.928,0,0,1,1.28-1.78,2.105,2.105,0,0,1,2.98.32,4.173,4.173,0,0,1,.88,3.4,4.11,4.11,0,0,1-1.33,2.65,2.127,2.127,0,0,1-3.24-.3,4.159,4.159,0,0,1-.79-3.22A10.159,10.159,0,0,1,1399.81,2499.26Zm-6.58,3.22a2.636,2.636,0,0,1,1.39-1.62,2.085,2.085,0,0,1,2.48.7,4.39,4.39,0,0,1,.91,3.66,3.315,3.315,0,0,1-.67,1.55,2.034,2.034,0,0,1-3.05.31,3.962,3.962,0,0,1-1.29-3.1,12.92,12.92,0,0,1,.17-1.51A0.127,0.127,0,0,1,1393.23,2502.48Zm21.59,7.78a4.55,4.55,0,0,1-3.19,2.79,2.306,2.306,0,0,1-1.79-.27,2.133,2.133,0,0,1-.88-2.3,4.444,4.444,0,0,1,3.42-3.41,2.246,2.246,0,0,1,1.78.33,2.1,2.1,0,0,1,.82,2.13C1414.95,2509.78,1414.87,2510.01,1414.82,2510.26Z" transform="translate(-1393 -2497)"/>
</svg>
