<?xml version="1.0" encoding="UTF-8"?>
<svg id="_Слой_2" data-name="Слой 2" xmlns="http://www.w3.org/2000/svg" viewBox="0 0 424.98 99.5">
  <defs>
    <style>
      .cls-1 {
        fill: #020202;
      }

      .cls-1, .cls-2, .cls-3 {
        fill-rule: evenodd;
      }

      .cls-2 {
        fill: #040404;
      }
    </style>
  </defs>
  <g id="_Слой_1-2" data-name="Слой 1">
    <path d="m355.15,41.22l-14.1,22.68.13.13c.62-.67,1.51-1.66,2.68-2.98,1.17-1.32,2.43-2.63,3.77-3.93,1.35-1.3,2.71-2.43,4.1-3.39,1.39-.96,2.61-1.44,3.67-1.44.88,0,1.51.32,1.89.97.38.65.56,1.41.56,2.29,0,1.01-.36,2.06-1.09,3.17-.73,1.11-1.54,2.23-2.45,3.36-.9,1.13-1.72,2.22-2.45,3.27s-1.09,1.97-1.09,2.76c0,.59.35.88,1.06.88.35,0,.76-.07,1.22-.22.46-.15,1-.42,1.62-.82.62-.4,1.32-.95,2.12-1.67.79-.71,1.7-1.61,2.71-2.7.66-.71,1.18-1.28,1.56-1.7.37-.42.66-.74.86-.97.2-.23.33-.38.4-.44.07-.06.14-.09.23-.09.22,0,.33.1.33.31,0,.08-.02.16-.07.22-.04.06-.13.17-.26.31-.13.15-.33.36-.6.63-.26.27-.64.68-1.13,1.23-2.25,2.56-4.1,4.3-5.56,5.25-1.46.94-2.67,1.41-3.64,1.41s-1.74-.37-2.18-1.1c-.44-.73-.66-1.71-.66-2.92s.36-2.46,1.09-3.61c.73-1.15,1.54-2.23,2.45-3.24.9-1.01,1.72-1.94,2.45-2.8.73-.86,1.09-1.6,1.09-2.23,0-.54-.29-.82-.86-.82-.62,0-1.65.48-3.11,1.44-1.46.96-3.18,2.43-5.16,4.4-1.99,1.97-4.15,4.44-6.49,7.41-2.34,2.97-4.72,6.47-7.15,10.49l-5.49,9.17-4.43.25,22.7-34.99-.13-.13c-.88.96-1.83,2.04-2.85,3.24-1.02,1.19-1.99,2.31-2.91,3.36-.93,1.05-1.71,1.93-2.35,2.64-.64.71-.98,1.07-1.03,1.07-.27,0-.4-.1-.4-.31,0-.08.03-.17.1-.25.07-.08.22-.26.46-.53.24-.27.63-.69,1.16-1.26.53-.57,1.26-1.39,2.18-2.48,1.01-1.21,1.91-2.26,2.68-3.14.77-.88,1.46-1.68,2.05-2.39.6-.71,1.14-1.37,1.62-1.98.49-.61.98-1.26,1.49-1.95.51-.69,1.06-1.46,1.65-2.29.6-.84,1.29-1.84,2.08-3.02l3.44-.57Zm-11.38-10.81c.18,0,.27.08.27.25,0,.21-.19.4-.56.57-.38.17-.84.39-1.39.66-.55.27-1.15.62-1.79,1.04-.64.42-1.25.96-1.82,1.63-1.15,1.34-2.55,3.29-4.2,5.84-1.65,2.55-3.56,5.8-5.73,9.74-1.72,3.1-3.73,5.88-6.02,8.36-2.29,2.47-4.86,4.57-7.71,6.28-2.85,1.72-5.93,3.04-9.27,3.96-3.33.92-6.87,1.38-10.62,1.38-2.51,0-4.88-.29-7.08-.88-2.21-.59-4.13-1.43-5.76-2.54-1.63-1.11-2.92-2.46-3.87-4.05-.95-1.59-1.42-3.41-1.42-5.47s.5-3.82,1.49-5.56c.99-1.74,2.32-3.26,3.97-4.55,1.65-1.3,3.54-2.32,5.66-3.08,2.12-.75,4.32-1.13,6.62-1.13,1.46,0,2.95.18,4.47.53,1.52.36,2.91.92,4.17,1.7,1.26.77,2.29,1.76,3.11,2.95.82,1.19,1.22,2.61,1.22,4.24,0,1.72-.42,3.24-1.26,4.56-.84,1.32-1.94,2.44-3.31,3.36-1.37.92-2.89,1.61-4.57,2.07-1.68.46-3.35.69-5.03.69-1.06,0-2.08-.1-3.08-.31-.99-.21-1.88-.45-2.65-.72-.77-.27-1.38-.53-1.82-.79s-.66-.44-.66-.57c0-.25.07-.38.2-.38.18,0,.46.1.86.31.4.21.93.44,1.59.69.66.25,1.47.48,2.42.69.95.21,2.08.31,3.41.31,1.5,0,3.01-.21,4.53-.63,1.52-.42,2.9-1.04,4.14-1.85,1.24-.82,2.24-1.84,3.01-3.08.77-1.24,1.16-2.65,1.16-4.24,0-2.22-.92-4.01-2.75-5.37-1.83-1.36-4.56-2.04-8.17-2.04-2.07,0-4.14.34-6.19,1.01s-3.92,1.6-5.59,2.8c-1.68,1.19-3.03,2.6-4.07,4.21-1.04,1.61-1.56,3.38-1.56,5.31,0,1.63.42,3.13,1.26,4.49.84,1.36,2.01,2.52,3.51,3.49,1.5.96,3.29,1.72,5.36,2.26,2.07.54,4.35.82,6.82.82,4.15,0,7.72-.55,10.72-1.66,3-1.11,5.63-2.57,7.88-4.37,2.25-1.8,4.24-3.87,5.96-6.22,1.72-2.35,3.38-4.76,4.96-7.26,1.59-2.49,3.22-4.95,4.9-7.38,1.68-2.43,3.62-4.65,5.82-6.66.93-.84,1.85-1.59,2.78-2.26.93-.67,1.79-1.24,2.58-1.7.79-.46,1.47-.82,2.02-1.07.55-.25.92-.38,1.09-.38Zm3.04-4.15c1.85,0,3.41-.05,4.67-.16,1.26-.1,2.32-.22,3.18-.35.86-.13,1.57-.24,2.12-.35.55-.1,1.07-.16,1.56-.16.13,0,.2.1.2.31,0,.13-.21.4-.63.82-.42.42-1.05.86-1.89,1.32-.84.46-1.92.88-3.24,1.26-1.32.38-2.87.57-4.63.57-1.32,0-2.48-.04-3.48-.13-.99-.08-1.95-.19-2.88-.31-.93-.13-1.88-.25-2.85-.38-.97-.13-2.11-.25-3.41-.38-1.3-.13-2.81-.23-4.53-.31-1.72-.08-3.77-.13-6.16-.13-3,0-5.73.32-8.17.97-2.45.65-4.55,1.51-6.29,2.58-1.74,1.07-3.1,2.27-4.07,3.61-.97,1.34-1.46,2.72-1.46,4.15,0,1.63.6,2.92,1.79,3.86,1.19.94,2.76,1.41,4.7,1.41,2.07,0,3.97-.29,5.69-.88,1.72-.59,3.29-1.32,4.7-2.2,1.41-.88,2.66-1.82,3.74-2.83,1.08-1.01,2-1.95,2.75-2.83.75-.88,1.31-1.61,1.69-2.2.38-.59.58-.88.63-.88.27,0,.4.1.4.31,0,.13-.19.54-.56,1.26-.38.71-.92,1.57-1.62,2.58-.71,1.01-1.57,2.06-2.58,3.17-1.01,1.11-2.16,2.14-3.44,3.08-1.28.94-2.7,1.73-4.27,2.36-1.57.63-3.23.94-5,.94-3.04,0-5.42-.66-7.12-1.98-1.7-1.32-2.55-2.96-2.55-4.93,0-1.34.46-2.79,1.39-4.34.93-1.55,2.45-2.98,4.57-4.3,2.12-1.32,4.93-2.41,8.44-3.27,3.51-.86,7.84-1.29,13.01-1.29h15.62Zm-83.26,26.01c-.31.5-.76,1.17-1.36,2.01-.6.84-1.27,1.76-2.02,2.76-.75,1.01-1.51,2.05-2.28,3.14-.77,1.09-1.48,2.13-2.12,3.11-.64.98-1.17,1.88-1.59,2.7-.42.82-.63,1.46-.63,1.92,0,.71.37,1.07,1.13,1.07.49,0,1.26-.33,2.32-1.01,1.06-.67,2.36-1.78,3.91-3.33.97-.96,1.73-1.73,2.28-2.29.55-.57.96-.98,1.22-1.26.26-.27.43-.45.5-.53.07-.08.14-.13.23-.13.22,0,.33.1.33.31,0,.04-.13.22-.4.53-.26.31-.6.68-.99,1.1-.4.42-.83.86-1.29,1.32-.46.46-.87.88-1.22,1.26-1.68,1.63-3.08,2.84-4.2,3.61-1.13.77-2.13,1.16-3.01,1.16-.57,0-1.05-.14-1.42-.41-.38-.27-.66-.62-.86-1.04-.2-.42-.33-.86-.4-1.32-.07-.46-.1-.88-.1-1.26,0-.8.15-1.59.46-2.39l-.13-.13c-.49.5-1.08,1.12-1.79,1.85-.71.73-1.48,1.44-2.32,2.14-.84.69-1.69,1.29-2.55,1.79-.86.5-1.67.75-2.42.75-1.06,0-1.83-.32-2.32-.97-.49-.65-.73-1.46-.73-2.42,0-1.17.23-2.29.7-3.36.46-1.07,1.05-2.07,1.75-3.02s1.46-1.86,2.25-2.76c.79-.9,1.5-1.79,2.12-2.67l-.13-.13c-.97.71-1.97,1.59-3.01,2.64-1.04,1.05-2.06,2.07-3.08,3.08-.44.46-.71.75-.79.88-.09.13-.2.19-.33.19-.18,0-.26-.13-.26-.38,0-.04.03-.12.1-.22.07-.1.21-.28.43-.53.22-.25.56-.6,1.03-1.04.46-.44,1.07-1.04,1.82-1.79.66-.67,1.42-1.4,2.28-2.2.86-.8,1.86-1.63,3.01-2.51l3.71-.25c-2.03,3.1-3.67,5.54-4.93,7.32-1.26,1.78-2.23,3.18-2.91,4.21-.68,1.03-1.15,1.81-1.39,2.36-.24.54-.36,1.13-.36,1.76,0,.38.12.65.36.82.24.17.5.25.76.25.84,0,1.97-.54,3.41-1.63,1.43-1.09,2.95-2.45,4.53-4.08,1.59-1.63,3.14-3.41,4.67-5.34,1.52-1.93,2.79-3.73,3.81-5.4l4.24-.25Zm-42.69,2.26l-.13-.13c-.66.5-1.48,1.2-2.45,2.1-.97.9-2.25,2.21-3.84,3.93-.35.38-.65.7-.89.97-.24.27-.41.41-.5.41-.18,0-.26-.13-.26-.38,0-.17.18-.42.53-.75.35-.33.99-1.01,1.92-2.01,1.28-1.34,2.48-2.5,3.61-3.49,1.13-.98,2-1.87,2.61-2.67l4.17-.25-10.66,17.21-4.5.25,10.39-15.2Zm15.29,1.38c-.71,0-1.16-.2-1.36-.6-.2-.4-.32-.95-.36-1.66-.75.13-1.31.39-1.69.79-.37.4-.83,1.02-1.36,1.85-.57.84-1.38,1.56-2.42,2.17-1.04.61-2.09,1.02-3.14,1.22v.13c.44.08.87.26,1.29.53.42.27.79.6,1.13.97.33.38.6.77.79,1.19.2.42.3.8.3,1.13s-.08.73-.23,1.19c-.15.46-.32.91-.5,1.35-.18.44-.34.83-.5,1.16-.15.34-.23.57-.23.69,0,.25.1.47.3.66.2.19.43.28.7.28.53,0,1.1-.18,1.72-.53.62-.36,1.25-.76,1.89-1.22.64-.46,1.22-.94,1.75-1.45.53-.5.95-.92,1.26-1.26.93-.92,1.63-1.64,2.12-2.17.49-.52.85-.93,1.09-1.23.24-.29.4-.48.46-.57.07-.08.14-.13.23-.13.26,0,.4.1.4.31,0,.04-.1.19-.3.44-.2.25-.46.55-.79.91-.33.36-.7.75-1.09,1.19-.4.44-.79.85-1.19,1.23-.57.59-1.2,1.19-1.89,1.82-.68.63-1.38,1.19-2.09,1.7-.71.5-1.39.91-2.05,1.23-.66.31-1.26.47-1.79.47-.62,0-1.15-.16-1.59-.47-.44-.31-.81-.71-1.09-1.19-.29-.48-.5-.99-.63-1.54-.13-.54-.2-1.05-.2-1.51s.07-.88.2-1.26c.13-.38.29-.72.46-1.04.18-.31.33-.61.46-.88.13-.27.2-.53.2-.79s-.13-.48-.4-.69c-.26-.21-.53-.31-.79-.31-.35,0-.72.15-1.09.44-.38.29-.87.44-1.49.44-.66,0-.99-.25-.99-.75,0-.21.14-.43.43-.66.29-.23.92-.35,1.89-.35.18,0,.34.02.5.06.15.04.41.06.76.06.26,0,.63-.1,1.09-.31.46-.21.97-.5,1.52-.88.55-.38,1.1-.82,1.65-1.32.55-.5,1.07-1.05,1.56-1.63.97-1.17,1.77-1.95,2.38-2.32.62-.38,1.3-.57,2.05-.57s1.36.18,1.82.53c.46.36.69.83.69,1.41,0,.54-.19.96-.56,1.26-.38.29-.81.44-1.29.44Zm-24.03-3.64c-.31.5-.76,1.17-1.36,2.01-.6.84-1.27,1.76-2.02,2.76-.75,1.01-1.51,2.05-2.28,3.14-.77,1.09-1.48,2.13-2.12,3.11-.64.98-1.17,1.88-1.59,2.7-.42.82-.63,1.46-.63,1.92,0,.71.38,1.07,1.12,1.07.49,0,1.26-.33,2.32-1.01,1.06-.67,2.36-1.78,3.91-3.33.97-.96,1.73-1.73,2.28-2.29.55-.57.96-.98,1.22-1.26.26-.27.43-.45.5-.53.07-.08.14-.13.23-.13.22,0,.33.1.33.31,0,.04-.13.22-.4.53-.27.31-.6.68-.99,1.1-.4.42-.83.86-1.29,1.32-.46.46-.87.88-1.22,1.26-1.68,1.63-3.08,2.84-4.2,3.61s-2.13,1.16-3.01,1.16c-.57,0-1.05-.14-1.42-.41-.38-.27-.66-.62-.86-1.04-.2-.42-.33-.86-.4-1.32-.07-.46-.1-.88-.1-1.26,0-.8.15-1.59.46-2.39l-.13-.13c-.49.5-1.08,1.12-1.79,1.85-.71.73-1.48,1.44-2.32,2.14-.84.69-1.69,1.29-2.55,1.79-.86.5-1.67.75-2.42.75-1.06,0-1.83-.32-2.32-.97-.49-.65-.73-1.46-.73-2.42,0-1.17.23-2.29.7-3.36.46-1.07,1.05-2.07,1.75-3.02s1.46-1.86,2.25-2.76c.79-.9,1.5-1.79,2.12-2.67l-.13-.13c-.97.71-1.97,1.59-3.01,2.64-1.04,1.05-2.06,2.07-3.08,3.08-.44.46-.71.75-.79.88-.09.13-.2.19-.33.19-.18,0-.27-.13-.27-.38,0-.04.03-.12.1-.22.07-.1.21-.28.43-.53.22-.25.56-.6,1.03-1.04.46-.44,1.07-1.04,1.82-1.79.66-.67,1.42-1.4,2.28-2.2.86-.8,1.86-1.63,3.01-2.51l3.71-.25c-2.03,3.1-3.67,5.54-4.93,7.32-1.26,1.78-2.23,3.18-2.91,4.21-.68,1.03-1.15,1.81-1.39,2.36-.24.54-.36,1.13-.36,1.76,0,.38.12.65.36.82.24.17.5.25.76.25.84,0,1.97-.54,3.41-1.63,1.43-1.09,2.95-2.45,4.53-4.08,1.59-1.63,3.14-3.41,4.67-5.34,1.52-1.93,2.79-3.73,3.81-5.4l4.24-.25Zm-76.78-4.4c0,1.68.5,3.02,1.49,4.02.99,1.01,2.5,1.51,4.53,1.51,2.16,0,4.3-.68,6.42-2.04,2.12-1.36,4.03-3.04,5.73-5.03,1.7-1.99,3.07-4.12,4.1-6.38,1.04-2.26,1.56-4.31,1.56-6.16,0-1.51-.17-2.79-.5-3.83-.33-1.05-.78-1.86-1.36-2.45-2.21.5-4.59,1.34-7.15,2.51-2.56,1.17-4.94,2.64-7.15,4.4-2.21,1.76-4.04,3.77-5.49,6.03-1.46,2.26-2.18,4.73-2.18,7.41Zm-6.16-8.04c-.22,0-.33-.1-.33-.31,0-.17.28-.89.83-2.17.55-1.28,1.51-2.82,2.88-4.62.88-1.17,1.93-2.29,3.14-3.36,1.21-1.07,2.54-2,3.97-2.8,1.43-.8,2.97-1.42,4.6-1.88,1.63-.46,3.31-.69,5.03-.69,1.5,0,2.97.23,4.4.69,1.43.46,2.72,1.13,3.87,2.01,1.46-.34,2.89-.6,4.3-.79,1.41-.19,2.82-.28,4.24-.28,4.68,0,9.13.82,13.37,2.45.75-.38,1.53-.77,2.35-1.19s1.58-.63,2.28-.63c.18,0,.26.08.26.25,0,.08-.09.16-.26.22-.18.06-.43.15-.76.25-.33.1-.74.27-1.22.5-.49.23-1.06.56-1.72.97,1.81.88,3.27,2.03,4.37,3.46,1.1,1.42,1.65,3.08,1.65,4.96,0,1.34-.33,2.56-.99,3.64-.66,1.09-1.52,2.05-2.58,2.89-1.06.84-2.23,1.53-3.51,2.07-1.28.54-2.54.96-3.77,1.26v.13c1.24.25,2.39.66,3.47,1.23,1.08.57,2.03,1.25,2.85,2.04.82.8,1.47,1.72,1.95,2.76.49,1.05.73,2.2.73,3.46,0,1.88-.51,3.65-1.52,5.31-1.01,1.65-2.31,3.11-3.87,4.37-1.57,1.26-3.32,2.25-5.26,2.98-1.94.73-3.84,1.1-5.69,1.1-1.01,0-1.97-.15-2.88-.44-.9-.29-1.71-.7-2.42-1.23-.71-.52-1.27-1.16-1.69-1.92-.42-.75-.63-1.61-.63-2.58,0-1.47.39-2.8,1.16-3.99.77-1.19,1.56-2.17,2.35-2.92.31-.29.66-.61,1.06-.94.4-.33.77-.64,1.13-.91.35-.27.66-.49.93-.66.27-.17.42-.25.46-.25.22,0,.33.13.33.38,0,.13-.28.37-.83.72s-1.33.99-2.35,1.92c-1.01.92-1.84,1.97-2.48,3.14-.64,1.17-.96,2.26-.96,3.27,0,1.76.61,3.14,1.82,4.15,1.21,1.01,2.72,1.51,4.53,1.51s3.54-.45,5.06-1.35c1.52-.9,2.85-2.06,3.97-3.49,1.13-1.42,2-2.97,2.61-4.65.62-1.68.93-3.31.93-4.9,0-1.42-.18-2.62-.53-3.58-.35-.96-.79-1.75-1.32-2.36-.53-.61-1.13-1.04-1.79-1.29-.66-.25-1.32-.38-1.99-.38-.53,0-.94.04-1.22.13-.29.08-.57.17-.86.25-.29.08-.62.17-.99.25-.37.08-.89.13-1.56.13-.84,0-1.26-.29-1.26-.88,0-.34.19-.59.56-.75.37-.17,1.05-.25,2.02-.25.66,0,1.16.02,1.49.06.33.04.63.06.89.06,1.32,0,2.54-.36,3.64-1.07,1.1-.71,2.03-1.6,2.78-2.67.75-1.07,1.33-2.23,1.75-3.49.42-1.26.63-2.45.63-3.58,0-1.59-.24-2.89-.73-3.9-.49-1.01-1.3-1.84-2.45-2.51-2.03,1.3-3.84,2.9-5.43,4.81-1.59,1.91-3.04,3.93-4.37,6.06-1.32,2.14-2.58,4.29-3.77,6.47-1.19,2.18-2.4,4.21-3.64,6.09-1.32,2.01-2.87,4.06-4.63,6.16-1.76,2.09-3.71,3.98-5.82,5.65-2.12,1.68-4.4,3.05-6.85,4.12-2.45,1.07-5.04,1.6-7.78,1.6-1.15,0-2.21-.14-3.18-.41-.97-.27-1.82-.66-2.55-1.16-.73-.5-1.29-1.08-1.69-1.73-.4-.65-.6-1.35-.6-2.1,0-.71.26-1.31.79-1.79.53-.48,1.17-.72,1.92-.72,1.63,0,2.45.75,2.45,2.26,0,.42-.11.81-.33,1.16-.22.36-.33.7-.33,1.04,0,.71.29,1.34.86,1.89.57.54,1.57.82,2.98.82,1.76,0,3.51-.27,5.23-.82,1.72-.54,3.42-1.49,5.1-2.83,1.68-1.34,3.39-3.13,5.13-5.37,1.74-2.24,3.54-5.08,5.39-8.51,1.46-2.68,2.9-5.13,4.34-7.35,1.43-2.22,2.96-4.27,4.57-6.16,1.61-1.88,3.34-3.62,5.2-5.21,1.85-1.59,3.88-3.08,6.09-4.46-1.94-.84-3.99-1.42-6.16-1.76-2.16-.34-4.32-.5-6.49-.5-2.47,0-5.01.29-7.61.88,1.01.88,1.75,2.03,2.22,3.46.46,1.42.7,2.76.7,4.02,0,2.26-.54,4.57-1.62,6.91-1.08,2.35-2.53,4.46-4.34,6.35-1.81,1.88-3.91,3.42-6.29,4.62-2.38,1.19-4.88,1.79-7.48,1.79-1.99,0-3.67-.57-5.06-1.7-1.39-1.13-2.09-2.81-2.09-5.03,0-2.39.72-4.7,2.15-6.94,1.43-2.24,3.25-4.29,5.46-6.16,2.21-1.86,4.62-3.46,7.25-4.77,2.63-1.32,5.13-2.25,7.51-2.8-1.06-.8-2.23-1.37-3.51-1.73-1.28-.36-2.58-.53-3.91-.53-1.76,0-3.45.24-5.06.72-1.61.48-3.11,1.11-4.5,1.88-1.39.77-2.64,1.64-3.74,2.61-1.1.96-2.01,1.95-2.71,2.95-1.01,1.38-1.78,2.52-2.28,3.42-.51.9-.87,1.61-1.09,2.14-.22.52-.35.88-.4,1.07-.04.19-.13.28-.26.28Z"/>
    <path d="m422.66,52.28c-2.03,3.1-3.67,5.57-4.93,7.41-1.26,1.84-2.23,3.3-2.91,4.37-.68,1.07-1.15,1.87-1.39,2.42-.24.54-.36,1.03-.36,1.45,0,.71.37,1.07,1.12,1.07.49,0,1.26-.33,2.32-1.01,1.06-.67,2.36-1.78,3.9-3.33.97-.96,1.73-1.73,2.28-2.29.55-.57.96-.98,1.22-1.26.26-.27.43-.45.5-.53.07-.08.14-.13.23-.13.22,0,.33.1.33.31,0,.04-.13.22-.4.53-.26.31-.6.68-.99,1.1-.4.42-.83.86-1.29,1.32-.46.46-.87.88-1.22,1.26-1.68,1.63-3.08,2.84-4.2,3.61-1.13.77-2.13,1.16-3.01,1.16-.57,0-1.05-.14-1.42-.41-.37-.27-.66-.61-.86-1.01-.2-.4-.33-.84-.4-1.32-.07-.48-.1-.91-.1-1.29,0-.59.21-1.33.63-2.23.42-.9.96-1.86,1.62-2.89.66-1.03,1.4-2.07,2.22-3.14.82-1.07,1.6-2.04,2.35-2.92l-.13-.13c-.88.84-1.75,1.73-2.61,2.67-.86.94-1.67,1.87-2.42,2.8-.75.92-1.45,1.78-2.08,2.58-.64.8-1.16,1.45-1.56,1.95-.22.25-.55.67-.99,1.26-.44.59-.93,1.18-1.46,1.79-.53.61-1.05,1.14-1.56,1.6-.51.46-.92.69-1.22.69-1.01,0-1.64-.27-1.89-.82-.24-.54-.36-1.13-.36-1.76,0-.96.2-1.99.6-3.08.4-1.09.92-2.2,1.56-3.33.64-1.13,1.33-2.23,2.08-3.3.75-1.07,1.48-2.04,2.18-2.92l-.13-.13c-1.68,1.63-3.14,3.24-4.4,4.81-1.26,1.57-2.57,3.17-3.94,4.81-.71.84-1.38,1.57-2.02,2.2-.64.63-1.09,1.05-1.36,1.26-.79.63-1.56,1.16-2.28,1.6-.73.44-1.53.66-2.42.66-.97,0-1.81-.37-2.51-1.1-.71-.73-1.06-1.79-1.06-3.17,0-.67.11-1.31.33-1.92.22-.61.52-1.14.89-1.6.38-.46.83-.82,1.36-1.07.53-.25,1.13-.36,1.79-.31.49.04.92.19,1.29.44.38.25.56.65.56,1.19,0,.71-.19,1.2-.56,1.48-.38.27-.67.41-.89.41-.31,0-.57-.04-.79-.13-.22-.08-.51-.13-.86-.13-.66,0-1.15.29-1.46.88-.31.59-.46,1.21-.46,1.88,0,.63.24,1.18.73,1.67.49.48,1.1.72,1.85.72.62,0,1.33-.24,2.15-.72.82-.48,1.6-1.06,2.35-1.73.71-.59,1.35-1.2,1.92-1.85.57-.65,1.17-1.36,1.79-2.14.62-.77,1.32-1.64,2.12-2.61.79-.96,1.74-2.05,2.85-3.27.31-.34.61-.65.89-.94.29-.29.58-.6.89-.91.31-.31.66-.66,1.06-1.04.4-.38.86-.8,1.39-1.26l3.71-.25c-.88,1.38-1.85,2.89-2.91,4.52-1.06,1.63-2.05,3.2-2.98,4.71-.93,1.51-1.7,2.88-2.32,4.12-.62,1.24-.93,2.17-.93,2.8,0,.21.07.36.2.44.13.08.24.13.33.13s.4-.3.93-.91c.53-.61,1.18-1.38,1.95-2.32.77-.94,1.61-1.98,2.52-3.11.9-1.13,1.78-2.2,2.61-3.2.35-.42.79-.93,1.32-1.54.53-.61,1.1-1.24,1.72-1.88.62-.65,1.25-1.28,1.89-1.88.64-.61,1.25-1.14,1.82-1.6l3.71-.25Zm-46.66,19.48c-3,1.84-5.54,3.48-7.61,4.9-2.07,1.42-3.75,2.71-5.03,3.86-1.28,1.15-2.2,2.19-2.75,3.11-.55.92-.83,1.78-.83,2.58,0,.84.19,1.45.56,1.82.38.38.85.57,1.42.57.84,0,1.75-.29,2.75-.88.99-.59,2.09-1.55,3.28-2.89,1.19-1.34,2.48-3.09,3.87-5.25,1.39-2.16,2.88-4.79,4.47-7.88v.19l-.13-.13Zm15.22-19.48l-11.78,18.16.13.13c1.15-.5,2.24-1.11,3.28-1.82,1.04-.71,2.02-1.46,2.95-2.23.93-.77,1.78-1.56,2.55-2.36.77-.8,1.47-1.53,2.08-2.2.62-.71.99-1.14,1.13-1.29.13-.15.29-.22.46-.22s.26.1.26.31c0,.04-.1.18-.3.41-.2.23-.44.51-.73.85-.29.34-.6.68-.93,1.04-.33.36-.63.68-.89.97-.93.96-1.83,1.82-2.71,2.58-.88.75-1.75,1.43-2.61,2.04-.86.61-1.73,1.16-2.61,1.66-.88.5-1.81.98-2.78,1.45-3.44,5.74-6.66,10.1-9.66,13.1-3,2.99-5.49,4.49-7.48,4.49-.93,0-1.7-.28-2.32-.85-.62-.57-.93-1.41-.93-2.54s.45-2.28,1.36-3.46c.9-1.17,2.16-2.39,3.77-3.64,1.61-1.26,3.54-2.58,5.79-3.96,2.25-1.38,4.72-2.83,7.41-4.33l5.76-10.43-.13-.13c-.31.38-.74.88-1.29,1.51-.55.63-1.18,1.3-1.89,2.01-.71.71-1.47,1.42-2.28,2.14-.82.71-1.63,1.36-2.45,1.95-.82.59-1.59,1.07-2.32,1.45-.73.38-1.36.57-1.89.57-.84,0-1.52-.39-2.05-1.16-.53-.77-.79-1.58-.79-2.42,0-1.13.33-2.27.99-3.42.66-1.15,1.39-2.26,2.18-3.33.79-1.07,1.52-2.06,2.18-2.98.66-.92.99-1.74.99-2.45,0-.54-.35-.82-1.06-.82-.84,0-1.75.36-2.75,1.07-.99.71-2.13,1.7-3.41,2.95-.93.96-1.65,1.72-2.18,2.26-.53.54-.93.97-1.19,1.29-.27.31-.44.51-.53.6-.09.08-.18.13-.26.13-.18,0-.26-.1-.26-.31,0-.04.02-.1.07-.19.04-.08.18-.25.4-.5.22-.25.55-.61.99-1.07.44-.46,1.04-1.11,1.79-1.95,1.9-2.01,3.43-3.35,4.6-4.02,1.17-.67,2.13-1.01,2.88-1.01,1.02,0,1.75.37,2.22,1.1.46.73.7,1.52.7,2.36,0,1.13-.33,2.29-.99,3.49-.66,1.19-1.39,2.34-2.18,3.42-.79,1.09-1.52,2.09-2.18,3.02-.66.92-.99,1.68-.99,2.26,0,.63.31.94.93.94.66,0,1.5-.3,2.52-.91,1.02-.61,2.07-1.4,3.18-2.39s2.24-2.08,3.41-3.3c1.17-1.21,2.26-2.42,3.28-3.61,1.01-1.19,1.91-2.32,2.68-3.39.77-1.07,1.33-1.94,1.69-2.61l4.24-.38Z"/>
    <path class="cls-3" d="m49.23,53.54c-.33-.78-1.01-1.53-1.63-1.91-.05,1.59.55,1.05-.99,1.59-.78.27-1.2.52-1.76.91-2.81,1.97-4.91,7.31-4.86,10.99.03,2.45,2.52,5.14,4.17,6.49,3.47,2.84,6.66,5.05,11.2,2.25.55-.34,1.09-.67,1.6-1.07.21-.17.52-.4.79-.6,2.01-1.45,4.83-4.54,4.9-7.07.09-3.15-1.22-5.88-2.48-8.13-2.22-3.97-3.19-3.09-4.26-3.7-.82-.46-.42-1-.89-1.56l-.16-.14c-.29.62-.39.49-.77.96-.23.27-.59.71-.78.93.4.17,1.34.22,1.87.37,4.2,1.26,6.05,5.37,6.63,9.41.62,4.4-2.41,7.54-5.94,7.69-.94.04-3.61-.08-4.06-.66-.29-.76.15-1.64.73-1.94.71-.37,1.24-.4,1.92-.87,2.78-1.93,3.5-5.27,1.26-7.26-.46-.41-1.05-.81-1.73-1.05-2.38-.82-5.24-.54-6.81.83-1.06.94-1.59,2.1-1.4,3.96.3,2.96,2.81,3.41,4.1,4.27,2.63,1.77.27,2.83-2.74,2.73-3.51-.12-6.91-3.2-6.27-7.35.35-2.25,1.05-4.9,2.42-6.75,1.01-1.36,3.35-3.2,5.98-3.32m5.58,10.56c-.2.22-.22.29-.74.35-1.86.18-1.05-1.33-.88-1.52,1.2-1.29,2.07.12,1.62,1.17Zm-7.18-.05c-.3-2.03,1.63-1.73,1.97-.98.19.41.38,1.34-.2,1.32-.17,0-1.6-.26-1.77-.33Zm8.1,7.77l.75.11c.02.31,0,.21-.27.48-.8.79-1.84,1.37-2.98,1.66-2.45.63-5.66-.36-6.94-1.81-.74-.83,1.7-.32,2.3.08.91.61.91.97,2.45,1.12,2.28.23,2.35-1.1,3.87-1.51.23-.06.58-.12.82-.13Zm-6.17.13c.42-.76,2.23-1.34,3.52-.11-.12.7-1.99,1.48-3.21.41l-.31-.3Z"/>
    <path class="cls-3" d="m19.81,11.84c-.92-.19-1.17-1.37-1.69-1.96-.64,1.61-.38,3.95-.24,5.66.05.62.21,2.51.36,2.95.12.37,1.3,1.52,1.55,1.75-.05-.31-.73-2.2-.93-3.38-.08-.5-.62-4.14.1-4.05.4.05.76.74,1.8,1.17.14-2.45.08-4.92.42-7.35.18-1.29,1.16-5.26,1.74-6.07,2.03-.24,7.16,1.69,9.19,2.96.37.23.71.45,1.07.67l6.88,5.25c.39.28.71.43,1.07.66v-3.25c.48.11.23-.04.6.34l2.5,3.16c-.25-1.89-3.06-5.66-4.85-6.27.14.83.92,2.46.83,3.15-.36.02-.48-.07-.82-.3-.3-.2-.47-.31-.77-.51-.44-.29-.87-.69-1.35-1.06-.86-.67-1.8-1.53-2.77-2.19-1.71-1.14-4.48-2.6-7.1-2.91-.99-.12-3.82-.5-4.48.05-1.11.92-2.29,5.66-2.51,7.26-.16,1.19-.34,3.23-.59,4.26"/>
    <path class="cls-3" d="m62.53,7.3c-.19-.54.61-2.47.72-3.15-1.48.33-4.02,3.71-4.62,5.7.03-.02.07-.09.08-.07l1.3-1.51c.28-.35.33-.47.63-.75.33-.31.47-.52.98-.46l-.04,3c.47-.11.39-.29.89-.7l6.96-5.17c2.72-1.65,6.4-3.5,10.32-3.67,1.47,2.28,2.59,10.22,2.04,13.58.32-.14.06-.02.27-.14l.69-.48c.12-.09.69-.58.91-.59.94-.07-.11,4.71-.21,5.08-.18.68-.57,1.55-.66,2.35,2.22-1.64,1.63-2.28,1.83-4.36.21-2.13,0-3.92.02-6.01-.36.37-1.23,1.78-1.62,1.96-.22-.29-.54-3.44-.69-4.14-.35-1.71-1.5-6.04-2.42-7.34-.55-.78-3.72-.29-4.5-.18-3.84.54-7.24,2.66-10.01,4.97l-1.33,1.21c-.33.35-.79.9-1.55.88"/>
    <path class="cls-3" d="m38.36,42.46c.66,1.01,4.5.25,4.54,3.5-1.78,0-4.63.48-6.13,1.03-.68.25-2.07.72-2.8.81-1.24.15-2.18-.19-3.3-.28.25.46,1.66,1.13,2.49,1.11,1.09-.03,2.18-.56,3.07-.54.21.32.4.7.63,1.05.28.43.53.7.83,1.01,3.15,3.22,8.12.79,8.23.38,0-2.05-1.46-4.14-2.33-5.53-1.06-1.71-2.98-3.22-5.24-2.54m4.7,4.52c.49.8.51.95-.09,1.64-2.05.19-2.23-1.86.09-1.64Z"/>
    <path class="cls-3" d="m66.47,48.1c1.02.07,1.83.45,2.96.45.9,0,2.17-.43,2.48-1-5.37.71-3.95-.37-8.89-1.25-.57-.1-2.98-.23-3.21-.4-.29-.23.1-.76.38-1.21,1.43-2.25,3.65-1.35,4.1-2-.92-.46-2.53-.2-3.22.26-.81.53-1.35,1.15-1.92,1.99-.5.74-2.66,3.98-2.46,5.25.08.51,1.56,1.51,2.21,1.7,2.27.66,4.21-.32,5.78-1.69.72-.63,1.14-1.38,1.78-2.09m-6.61.68c-1-.69-.95-.92-.12-1.83.66,0,1.5.22,1.51.78.01.66-.77.86-1.4,1.05Z"/>
    <path class="cls-3" d="m83.81,85.62c-.16-1.17-.02-2.6.38-3.57l-1.87-2.24c.12.7.65,3.04.52,3.54-1.08-.04-1.86-1.17-2.74-1.17.55,2.56,0,3.99-1.45,5.38-1.77,1.69-4.56,2.96-6.92,4.19l-3.63,1.94c-.65.35-3.16,1.84-3.7,1.77-.2-1.39.84-4.38.71-5.72-.94,1.18-5.66,12.43-4.87,4.96-1,.41-2.4,2.22-2.59,3.24.31-.25,1.28-.79,1.83-.7l.06,2.28c.34-.08.78-.63,1.05-.94.22-.26.22-.26.49-.54l1.94-2.65c.19-.25-.04-.09.25-.23.31.54-.03,1.59-.04,2.28.6-.21,6.62-3.73,7.71-4.39,2.27-1.38,6.04-3.16,7.57-4.37,1.46-1.14,2.58-4.15,3.19-4.63.94.43,1.37,1.41,2.09,1.58"/>
    <path class="cls-3" d="m20.19,79.81c-.64.26-1.31,1.17-1.35,2.23-.03,1.1-.04,2.39.05,3.48.44-.1.75-.43,1.02-.69.18-.18.23-.22.43-.37.38-.3.07-.2.53-.34.42.23.56.74.77,1.23,1.12,2.6,3.7,4.24,6.14,5.61,1.67.94,3.46,1.71,5.2,2.58.44.22.89.41,1.34.64.86.45,1.7.9,2.51,1.43,1.09.71,1.85,1.59,2.12,1.71.42-.43.56-1.16.87-1.71.54.19.3.18.78,1.13.51,1,1.48,2.17,2.54,2.75l.39-2.22c.15-.07,0-.05.25-.05.44.01.95.49,1.42.61-.09-.2-2.43-2.95-2.79-3.12.05.5.06,2.21-.16,2.57-1.17-.28-3-4.45-3.7-5.68-.21-.37-.36-.75-.54-1.05l-.58-.86s-.04-.05-.06-.08c.19,1.36.99,4.68.88,5.87-1.15-.07-8.74-4.34-9.97-5.11l-4.42-3.09c-2.65-2.59-1.48-3.5-1.31-5.24-.83.21-2.06,1.24-2.86,1.2l.5-3.44Z"/>
    <path class="cls-3" d="m47.11,12.68c.1-.42.31-1.12.7-1.31.36.34,1.85,3.49,2.11,4.19.32.88.88,1.45.29,2.14-.42.5-1.03,1.23-.91,2.14,0-.34,1.29-1.94,2.22-2.07l1.48,1.37s.04.05.06.07l.23.2c-.08-.36-.23-.75-.4-1.07-.83-1.54-.93-.52-.03-3.04.35-.97,1.32-3.35,2.03-3.83.32.23.36.4.5,1.15.29-.39.68-3.62.73-4.39-2.14,1.04-2.37,3.47-2.88,3.87-.36-.17-.09.23-.52-.87-.13-.33-.23-.72-.42-1.03-.28.21-.53.61-.95.76-.55-.12-.52-.46-1.06-.74-.28.5-.22,1.53-.71,1.88-.89-.52-1.18-3.5-3.07-3.93.09.34.2,1.58.25,2.12.04.42.08.81.12,1.23.03.33.05.86.22,1.17"/>
    <path class="cls-3" d="m80.8,47.56c1.93.92,7.92,1.34,10.5,1.37,1.14.02,2.93-.1,3.98.07-.14.56-.78.56-1.69,1.26,1.22.58,2.84.28,4.11.56.15.51-.82,1.17-1.06,1.68.59-.26,1.33-.59,2.02-.91l2.12-.91c-.71-.63-2.41-.31-3.24-.81.14-.33.14-.21.53-.41.29-.15.32-.17.62-.3l3.88-1.87c-3.23.09-6.24.98-10.8.98-1.83,0-3.7-.17-5.5-.34-1.76-.16-3.73-.5-5.46-.36"/>
    <path class="cls-3" d="m5.14,49.87c-.7.27-2.33.27-3.26.38.14.36,1.46.89,1.85,1.08.51.25,1.37.74,1.96.95-.24-.15-.32-.3-.54-.61-.24-.36-.4-.5-.27-.85,1.02-.29,3.15-.06,4.4-.4-.1-.37,0-.15-.94-.65-.65-.34-.85-.33-1.03-.69.53-.32,3.19-.13,4-.14,3.12-.03,8.27-.44,10.86-1.51-1.2.2-10.36.84-11.22.84-4.01,0-9.48-1.16-10.95-1.06l3.94,1.91c.41.19,1.03.32,1.2.75"/>
    <path class="cls-3" d="m32.35,61.53l-3.41-.29c.6.77,4.97,2.5,5.1,2.83.36.88-3.03,1.26-3.45,1.5.58.22,2.32.07,2.97-.08,1.25-.29,1.34-.5,2.86-.42-.02-.03-.06-.1-.08-.08-.01.02-.06-.06-.08-.08l-2.46-1.64c-.42-.36-.16-.02-.3-.43.28-.12,1.01-.37,1.24-.64l-.26-.25c-1.53-1.28-1.21-.89-2.7-2.71-1.82-2.23-2.17-4.14-5.34-4.44.4.43,1.57.96,2.64,2.07,1.45,1.51,1.6,1.9,2.74,3.58.24.35.49.61.52,1.09"/>
    <path class="cls-3" d="m68.01,62.36c.43.32.7.2,1.21.4-.14.41-.15.22-.78.63-.31.2-.61.43-.89.61l-1.69,1.34c3.92-.76,1.39.55,6.1.26-.45-.36-.96-.24-1.92-.5-.42-.12-1.32-.55-1.51-.88-.03-.3,1.59-.99,2.21-1.34.41-.23,2.06-.99,2.19-1.29l-2.71-.03c.11-.68.78-1.46,1.14-1.91.56-.7.85-1,1.38-1.72.38-.52.83-1.41,1.23-1.75.96-.83,1.63-.88,1.92-1.34-3.32.45-3.87,3.56-5.97,5.56-.19.18-.29.25-.47.46-.19.22-.21.3-.41.51-.54.55-.86.51-1.02.99"/>
    <path class="cls-3" d="m.26,64.04l4.58-.78c1.04,0-.32,1.28-.62,2.08.29.03.4.04.72.06.09,0,.25.01.34.03l.21.05c.42.12.28.91.48,1.82.1.47.31,1.14.47,1.56.36.96,1.02,2.13,1.52,2.64-.49-1.59-1.05-2.72-1.27-4.6-.29-2.49-1.17-2.54.08-4.3-.93-.2-2.14.13-3-.17.04-.78,1.46-1.25,1.98-1.66-1.47-.03-5.24,1.98-5.48,3.28"/>
    <path class="cls-3" d="m96.33,60.73c.91.31,2.44.8,2.58,1.58-.62.33-2.19.13-2.99.34-.27,1.22.9.75.64,1.84-.18.76-.42,1.29-.56,2.17-.11.71-.25,1.52-.42,2.17l-.57,2.05c.6-1.05.93-.94,1.55-3.12.82-2.87-.09-1.66,1.45-2.67l.4-.35c-.49-.22-1.15-.9-.88-1.56.49-.16,4,.74,4.89.86-.87-1.94-5.36-3.69-6.08-3.32"/>
    <path class="cls-1" d="m53.06,39.61c.58-1.15.95-2.45,1.66-3.6.79-1.27,1.83-1.79,2.79-2.74l2.01-2.02c1.71-1.44,1.7-1.42,3.54-2.69.02-.01.19-.14.21-.16.2-.17.03.03.2-.21l-2.74.85.23-2.62c-.38.43-1.16,2.87-1.59,3.67-.33.61-.66,1.01-1.16,1.48-.21.2-.43.42-.64.62l-2.19,1.85c-.26.24-.41.35-.63.64-1.14,1.47-1.78,2.72-1.68,4.92"/>
    <path class="cls-3" d="m41.75,28.95c-.9-.11-2.57-1.07-3.31-1.21l.43.33c.18.12.27.15.43.26l2.43,1.74c1.94,1.57,2.8,2.56,4.37,3.93.6.52.95.93,1.37,1.39.61.68,2,2.54,1.94,3.54.33-2.39-1.17-4.38-2.94-5.72-.33-.25-.43-.34-.78-.61l-1.34-1.2c-2.09-2.04-1.61-3.06-2.64-4.96-.05.74.36,1.91.05,2.51"/>
    <path class="cls-3" d="m65.27,35.83l.69.2c4.27.39,9.14.09,12.48-2.09-.75.06-2.3.51-3.06.7-2.17.56-4.69.13-7.18.36-1.37.13-1.88.42-2.93.83"/>
    <path class="cls-3" d="m36.89,12.32c.5-.14.79-.39,1.36-.39.22.21,1.55,2,1.58,2.08.05-.91-1.14-2.85-1.64-3.35-1.04-1.02-1.58-1.05-3.07-2.24l-2.78-2.41c-.67-.52-2.46-1.76-3.47-1.93l.31.22c.12.08.17.11.28.19.21.14.39.26.61.43l1.68,1.31c.25.24.33.25.58.46,1.33,1.08,4.29,4.1,4.56,5.63"/>
    <path class="cls-3" d="m13.75,28.22c-.91,1.22-3.42.95-3.84,1.68.92.47,2.55.94,3.13,1.38-.05,1.14-1.55,2.25-1.97,3.2.77-.12,1.63-1.06,2.07-1.49.48-.47,1.07-1.45,1.33-2.18-.3-.22-1.55-.28-1.8-1.06.46-.36,2.03-.67,2.46-1.74-.65-.68-1.24-.84-2.51-.95.32.53.85.72,1.13,1.17"/>
    <path class="cls-3" d="m87.52,28.13c.66.7,1.07.82,1.88,1.32.33.2.47.25.65.56-.43.4-.83.3-1.84.96.27,1,2.24,3.25,3.4,3.49-.31-.42-.72-.96-1.07-1.4-.35-.44-.91-1.07-.9-1.71.3-.25,2.52-1.11,3.08-1.46-.8-.69-2.91-.74-3.77-1.57.13-.56.65-.59,1.15-1.26-1.12.09-2.19.23-2.59,1.06"/>
    <path class="cls-1" d="m62.82,14.19c.41-.27,1.17-1.73,1.74-2.49.76.13.55.49,1.15.53.31-.4.7-1.45,1.62-2.62.6-.77,1.33-1.57,2.05-2.21,2.23-1.97,2.81-2.03,5.02-3.61-3.06,1.31-4.21,2.15-6.56,4.39-2.16,2.06-1.56.82-3.24,2.31-.97.86-1.67,2.34-1.77,3.69"/>
    <path class="cls-3" d="m37.32,35.84c-3.11-1.67-6.52-.29-10.39-1.24-.67-.16-2.72-.76-3.17-.74,3.11,1.76,5.88,2.16,9.65,2.22l3.64-.13c.3-.08.15-.03.27-.11"/>
    <path class="cls-3" d="m84.33,23.28l2.83.11c-.05.66-.81.91-1.12,1.82,2.5.13,3.77.76,5.6,1.45.28.11.37.13.66.29-1.91-1.84-3.48-1.54-4.09-2.43.09-.09-.03-.04.27-.2l1.31-.42c-1.02-1.18-2.99-1.2-4.11-1.37.04-.64.3-1.02.42-1.61-.92.42-1.5,1.2-1.79,2.36"/>
    <path class="cls-3" d="m16.96,22.47c-.65.24-3,.1-4.12,1.27.31.12,1.22.21,1.63.56-.43.92-3.05,1.5-3.77,2.35.36-.09.77-.35,1.25-.5,1.2-.37,3.36-.91,4.55-.84-.19-1.14-.77-1.1-.98-1.94l2.77-.07c-.25-1.05-.63-2.06-1.65-2.26.14.47.39.92.31,1.43"/>
    <path class="cls-3" d="m77.01,9.23c.46.06.82.11,1.28.15.22.02.43.03.64.07,1.17.25.4,1.24.82,2.41.01.03.02.06.03.09l.1.18s.04.06.06.09c.3-1.24.32-2.19.1-3.51-1.73-.3-1.08.25-1.96-.89-.27.31-.29.44-.55.71-.39.41-.26.18-.53.68"/>
    <path class="cls-1" d="m22.79,8.29c-.45,1.94-.46,2.08.05,3.98.13-.79,0-2.03.28-2.48l2.48-.5-1.1-1.42c-.24,1.06-.99.91-1.71.43"/>
    <path class="cls-1" d="m56.26,43.08c1.71-.44,1.78-3.67,2.72-4.37-1.96.99-2.3,2.86-2.72,4.37"/>
    <path class="cls-2" d="m89,80.22c-.04-1.49-2.15-4.67-3.15-5.3l-.32.29c.5,1.1,2.92,3.3,3.47,5.01"/>
    <path class="cls-1" d="m46.35,42.94c-.47-2.11-.75-2.6-2.14-3.67.24,1.66.88,3.15,2.14,3.67"/>
    <path class="cls-1" d="m13.25,75.21c.21-.12.06-.03.25-.15.03-.02.12-.08.15-.1l1.76-1.58c1.47-1.13,1.77-.82,1.99-1.92-.92.14-2.05,1.11-2.48,1.57-.51.54-1.45,1.58-1.67,2.18"/>
    <path class="cls-2" d="m15.25,77.49c.62-.87,1.71-1.66,1.72-2.49-.69.2-1.39.97-1.72,1.48-.59.91-1.38,2.58-1.53,3.63l1.54-2.61Z"/>
    <path class="cls-3" d="m6.82,46.8c.89-.3,1.01-3.41.77-4.4-.32,1.11-1.46,3.19-.77,4.4"/>
    <path class="cls-1" d="m95.93,46.83c.32-1.48-.33-3.3-1.05-4.45.12,1.08.03,4.09,1.05,4.45"/>
    <path class="cls-3" d="m23.83,14.54c-.36.37-.77.66-1.17.99.81-.04,2.28-.18,2.78-.65-.48-.57-.67-.55-1.09-.95-.44-.42-.73-.59-1.12-.93.13.53.56,1.02.59,1.54"/>
    <path class="cls-3" d="m77.28,14.87c.38.54,1.62.69,2.42.69-.3-.35-.52-.61-.88-1.03.17-.84.49-.98.69-1.6l-2.24,1.94Z"/>
    <path class="cls-1" d="m88.36,73.73c-.67-.87-1.68-1.91-2.84-2.17.14.88,2.34,2.2,3.1,2.82l.48.42c-.15-.46-.44-.68-.74-1.07"/>
    <path class="cls-1" d="m33.48,68.75c1.12-.03,3.26-1.35,3.78-1.94-2.07-.11-3.33,1.73-3.78,1.94"/>
    <path class="cls-1" d="m68.86,68.62c-.32-.54-.89-.98-1.44-1.26-.77-.38-1.15-.4-1.94-.62.12.23,1.04.95,1.4,1.14.45.24,1.38.6,1.99.74"/>
  </g>
</svg>