<svg xmlns="http://www.w3.org/2000/svg" width="33.06" height="31.938" viewBox="0 0 33.06 31.938">
  <defs>
    <style>
      .cls-1 {
        fill: #29222e;
        fill-rule: evenodd;
      }
    </style>
  </defs>
  <path id="Фигура_13" data-name="Фигура 13" class="cls-1" d="M1011.16,895.485c-0.42.11-.81,0.218-1.2,0.314a0.752,0.752,0,1,1-.37-1.448c0.21-.062.42-0.113,0.63-0.17l0.52-.149c0-.643-0.03-1.25.01-1.852s0.15-1.2.23-1.845c-0.41-.111-0.84-0.226-1.27-0.344a0.794,0.794,0,0,1-.74-0.988,0.779,0.779,0,0,1,1.09-.468c0.48,0.123.96,0.253,1.46,0.384a24.169,24.169,0,0,0,2.08-4.545,0.891,0.891,0,0,0-.05-0.532,24.141,24.141,0,0,1-1.69-10.5c0.06-1.322.62-1.618,1.68-.917,1.63,1.072,3.3,2.055,4.95,3.084a1.539,1.539,0,0,1,.49.424,0.677,0.677,0,0,1-.13.9,0.739,0.739,0,0,1-.98.052c-1.22-.752-2.44-1.506-3.65-2.258-0.27-.162-0.53-0.324-0.84-0.511,0,0.938-.05,1.835.02,2.722a21.521,21.521,0,0,0,1.7,6.874,1.168,1.168,0,0,1,.02.8c-0.56,1.386-1.16,2.754-1.75,4.126-0.09.212-.21,0.411-0.35,0.68,0.79,0.215,1.55.418,2.31,0.622,0.34,0.093.69,0.174,1.03,0.281a0.748,0.748,0,1,1-.4,1.435c-1.02-.262-2.04-0.537-3.06-0.806-0.13-.035-0.26-0.058-0.52-0.112-0.06.976-.12,1.894-0.19,2.911l3.15-.832c0.22-.06.44-0.128,0.67-0.174a0.739,0.739,0,0,1,.94.536,0.725,0.725,0,0,1-.55.892c-1.14.321-2.28,0.619-3.42,0.927-0.09.024-.17,0.055-0.32,0.1,0.07,0.184.13,0.355,0.2,0.518a9.8,9.8,0,0,0,4.74,4.855,16.466,16.466,0,0,0,16.59-.5,9.289,9.289,0,0,0,3.89-4.36c0.06-.128.11-0.259,0.16-0.391a0.658,0.658,0,0,0,0-.148c-1-.268-2.02-0.541-3.03-0.814-0.24-.064-0.48-0.116-0.72-0.2a0.74,0.74,0,0,1-.5-0.885,0.722,0.722,0,0,1,.9-0.537c1.16,0.29,2.31.605,3.47,0.91,0.07,0.018.14,0.033,0.27,0.061a6.493,6.493,0,0,0-.17-2.867c-0.84.221-1.65,0.433-2.45,0.645-0.36.1-.72,0.2-1.08,0.287a0.746,0.746,0,0,1-.94-0.543,0.735,0.735,0,0,1,.55-0.9c1.1-.309,2.21-0.6,3.39-0.912-0.12-.229-0.23-0.41-0.32-0.6-0.59-1.371-1.21-2.733-1.76-4.122a1.555,1.555,0,0,1,.05-1.019,21.959,21.959,0,0,0,1.72-8.761v-0.738c-0.46.285-.84,0.518-1.22,0.751-1.1.678-2.19,1.362-3.29,2.034a0.753,0.753,0,0,1-1.2-.313,0.715,0.715,0,0,1,.31-0.895c1.88-1.166,3.75-2.336,5.64-3.484,0.59-.361,1.11-0.037,1.17.715a23.543,23.543,0,0,1-1.2,9.782,2.52,2.52,0,0,1-.18.482,2.1,2.1,0,0,0,.02,2.163c0.57,1.191,1.11,2.4,1.68,3.62,0.59-.151,1.11-0.291,1.63-0.419a0.754,0.754,0,0,1,1,.5,0.765,0.765,0,0,1-.62.941c-0.47.142-.95,0.263-1.32,0.364,0.07,1.257.13,2.451,0.19,3.723,0.31,0.083.73,0.186,1.14,0.311a0.752,0.752,0,1,1-.4,1.442c-0.39-.1-0.78-0.2-1.17-0.306a0.3,0.3,0,0,0-.09.111,11.376,11.376,0,0,1-6.09,6.415,17.867,17.867,0,0,1-17.72-.82,10.7,10.7,0,0,1-4.65-5.565C1011.23,895.588,1011.2,895.553,1011.16,895.485Zm24.22-14.532a1.818,1.818,0,0,1-.55.588,1.253,1.253,0,0,1-.77-0.116,1.022,1.022,0,0,1-.33-0.381,10.5,10.5,0,0,0-16.61.126c-0.08.1-.15,0.2-0.23,0.292a0.752,0.752,0,0,1-1.01.118,0.7,0.7,0,0,1-.14-1.036,18.409,18.409,0,0,1,1.99-2.156,11.941,11.941,0,0,1,17.28,1.887A4.868,4.868,0,0,1,1035.38,880.953Zm-9.91,14.534a3.678,3.678,0,0,1-2.79,1.4,0.745,0.745,0,0,1-.84-0.689,0.776,0.776,0,0,1,.74-0.8,2.392,2.392,0,0,0,2.13-3.124,0.936,0.936,0,0,0-.21-0.353,17.093,17.093,0,0,1-1.05-1.366,1,1,0,0,1-.12-0.8,0.873,0.873,0,0,1,.66-0.379c0.99-.041,1.99-0.042,2.98,0a0.874,0.874,0,0,1,.65.4,0.919,0.919,0,0,1-.11.763,5.252,5.252,0,0,1-.8,1.031,2.253,2.253,0,0,0-.28,2.565,1.963,1.963,0,0,0,1.85,1.266,0.728,0.728,0,0,1,.72,1.077,1.038,1.038,0,0,1-.71.4,3.377,3.377,0,0,1-2.51-1.05C1025.68,895.725,1025.59,895.621,1025.47,895.487Zm6.16-8.259a1.189,1.189,0,0,1-1.2,1.223,1.218,1.218,0,0,1-1.22-1.219,1.249,1.249,0,0,1,1.19-1.211A1.223,1.223,0,0,1,1031.63,887.228Zm-11.1,1.222a1.2,1.2,0,0,1-1.22-1.208,1.225,1.225,0,0,1,1.22-1.221,1.246,1.246,0,0,1,1.2,1.2A1.213,1.213,0,0,1,1020.53,888.45Z" transform="translate(-1008.94 -872.031)"/>
</svg>
