<svg xmlns="http://www.w3.org/2000/svg" width="31.656" height="31.969" viewBox="0 0 31.656 31.969">
  <defs>
    <style>
      .cls-1 {
        fill: #29222e;
        fill-rule: evenodd;
      }
    </style>
  </defs>
  <path id="Фигура_12" data-name="Фигура 12" class="cls-1" d="M798.784,883.134a10.167,10.167,0,0,1,9-10.058,10.027,10.027,0,0,1,10.972,8.815,11.082,11.082,0,0,1-.25,3.847c-0.69,3.067-1.388,6.132-2.01,9.213a7.863,7.863,0,0,1-7.492,6.506,7.769,7.769,0,0,1-7.768-6.257q-1.108-5.016-2.189-10.038C798.906,884.5,798.869,883.81,798.784,883.134Zm10.061-8.725c-0.378.036-.758,0.064-1.136,0.108a8.729,8.729,0,0,0-7.273,10.468c0.738,3.283,1.446,6.572,2.157,9.861a6.349,6.349,0,0,0,12.5-.065c0.674-3.191,1.356-6.38,2.1-9.555A8.743,8.743,0,0,0,808.845,874.409Zm-8.355,30.525a7.2,7.2,0,0,1-3.893-.763,6.933,6.933,0,0,1-3.488-7.471c0.75-4.674,1.456-9.356,2.18-14.034,0.184-1.188.333-2.383,0.557-3.563a5.423,5.423,0,0,1,2.539-3.642,11.477,11.477,0,0,1,2.112-.959,0.721,0.721,0,0,1,1.07.433,0.742,0.742,0,0,1-.7.927,4.806,4.806,0,0,0-3.481,2.984,11.828,11.828,0,0,0-.425,2.222q-1.05,6.729-2.087,13.462c-0.152.982-.321,1.963-0.451,2.949a5.362,5.362,0,0,0,5.119,6.029c0.7,0.014,1.407.009,2.111,0a1.949,1.949,0,0,0,2.061-1.876,0.819,0.819,0,0,1,.214-0.547,1.135,1.135,0,0,1,.755-0.145,0.654,0.654,0,0,1,.429.745,3.364,3.364,0,0,1-3.147,3.242C801.515,904.95,801.06,904.934,800.49,904.934Zm16.547,0.044a15.416,15.416,0,0,1-1.879-.136,3.312,3.312,0,0,1-2.6-3.13,0.746,0.746,0,0,1,.654-0.852,0.722,0.722,0,0,1,.747.752,1.914,1.914,0,0,0,2.077,1.894,16.5,16.5,0,0,0,3.275-.2,5.292,5.292,0,0,0,3.9-6.024c-0.93-5.968-1.827-11.941-2.781-17.905a4.222,4.222,0,0,0-2.467-3.06,8.331,8.331,0,0,0-1.273-.474,0.735,0.735,0,0,1-.6-0.886,0.7,0.7,0,0,1,.932-0.5,6.171,6.171,0,0,1,4.62,4.035,19.077,19.077,0,0,1,.559,3.1q1.044,6.685,2.068,13.374a22.4,22.4,0,0,1,.381,3.4,6.7,6.7,0,0,1-6.428,6.57c-0.395.01-.792,0-1.187,0Zm-8.212-14.308c0.352,0,.7-0.013,1.054,0a2.08,2.08,0,0,1,1.7,3.167,5.556,5.556,0,0,1-1.894,2.122,0.5,0.5,0,0,0-.137.374c-0.014.667,0,1.336-.008,2a0.714,0.714,0,1,1-1.4.016c-0.006-.668-0.013-1.335,0-2a0.5,0.5,0,0,0-.281-0.48,5.466,5.466,0,0,1-1.951-2.459,2.059,2.059,0,0,1,1.867-2.74C808.122,890.657,808.474,890.67,808.825,890.67Zm0.012,1.424a4.437,4.437,0,0,0-.916.016,0.964,0.964,0,0,0-.627.37,0.878,0.878,0,0,0,.07.726,10.067,10.067,0,0,0,.936,1.227,0.648,0.648,0,0,0,1.061.007c0.342-.4.671-0.821,0.972-1.256a0.67,0.67,0,0,0-.532-1.086C809.481,892.079,809.159,892.1,808.837,892.094Zm-3.925-7.405a1.122,1.122,0,0,1,1.112,1.134,1.14,1.14,0,0,1-1.136,1.163,1.163,1.163,0,0,1-1.12-1.188A1.138,1.138,0,0,1,804.912,884.689Zm8.976,1.142a1.126,1.126,0,1,1-2.252-.024A1.126,1.126,0,1,1,813.888,885.831Z" transform="translate(-793 -873)"/>
</svg>
